<?xml version="1.0" encoding="iso-8859-1"?>
<!-- Uploaded to: SVG Repo, www.svgrepo.com, Generator: SVG Repo Mixer Tools -->
<svg fill="#000000" height="800px" width="800px" version="1.1" id="Layer_1" xmlns="http://www.w3.org/2000/svg" xmlns:xlink="http://www.w3.org/1999/xlink" 
	 viewBox="0 0 512 512" xml:space="preserve">
<g>
	<g>
		<path d="M278.076,109.351c-0.815-8.445-2.082-16.582-3.677-24.336c19.726,9.312,53.422,6.192,109.737-41.82
			C301.601-10.226,269.033,9.662,256.35,30.072C248.195,12.199,240.78,1.228,239.934,0l-25.828,17.779
			c0.365,0.53,26.078,38.594,32.245,90.601c-106.878,5.044-192.276,93.592-192.276,201.695C54.073,421.421,144.653,512,255.999,512
			s201.926-90.579,201.926-201.926C457.926,206.202,379.074,120.379,278.076,109.351z M166.455,381.295h-25.085V356.21h25.085
			V381.295z M216.627,429.031h-25.085v-25.085h25.085V429.031z M222.898,373.979h-25.085v-25.085h25.085V373.979z"/>
	</g>
</g>
</svg>